<svg width="31" height="31" viewBox="0 0 31 31" fill="none" xmlns="http://www.w3.org/2000/svg">
<path d="M20.2861 8.42812C20.2861 8.69453 20.268 8.96093 20.2347 9.22431C20.2498 9.11835 20.2649 9.00937 20.2771 8.90341C20.2044 9.43017 20.0651 9.94179 19.8623 10.4322C19.9017 10.3353 19.944 10.2385 19.9834 10.1416C19.7806 10.6199 19.5202 11.068 19.2024 11.4797L19.3931 11.2345C19.0782 11.6401 18.7119 12.0064 18.3063 12.3213L18.5515 12.1306C18.1398 12.4454 17.6917 12.7088 17.2134 12.9116C17.3103 12.8723 17.4071 12.8299 17.504 12.7905C17.0136 12.9934 16.502 13.1326 15.9752 13.2053C16.0812 13.1901 16.1901 13.175 16.2961 13.1629C15.7663 13.2325 15.2335 13.2325 14.7037 13.1629C14.8097 13.178 14.9187 13.1932 15.0246 13.2053C14.4979 13.1326 13.9862 12.9934 13.4958 12.7905C13.5927 12.8299 13.6896 12.8723 13.7864 12.9116C13.3081 12.7088 12.8601 12.4484 12.4483 12.1306L12.6936 12.3213C12.2879 12.0064 11.9216 11.6401 11.6067 11.2345L11.7975 11.4797C11.4826 11.068 11.2192 10.6199 11.0164 10.1416C11.0558 10.2385 11.0982 10.3353 11.1375 10.4322C10.9347 9.94179 10.7954 9.43017 10.7228 8.90341C10.7379 9.00937 10.753 9.11835 10.7651 9.22431C10.6955 8.69453 10.6955 8.16171 10.7651 7.63193C10.75 7.73789 10.7349 7.84687 10.7228 7.95283C10.7954 7.42607 10.9347 6.91445 11.1375 6.42402C11.0982 6.52089 11.0558 6.61777 11.0164 6.71464C11.2192 6.23632 11.4796 5.78828 11.7975 5.37656L11.6067 5.62177C11.9216 5.21611 12.2879 4.8498 12.6936 4.53496L12.4483 4.72568C12.8601 4.41084 13.3081 4.14746 13.7864 3.94462C13.6896 3.98398 13.5927 4.02636 13.4958 4.06572C13.9862 3.86289 14.4979 3.72363 15.0246 3.65097C14.9187 3.66611 14.8097 3.68125 14.7037 3.69335C15.2335 3.62373 15.7663 3.62373 16.2961 3.69335C16.1901 3.67822 16.0812 3.66308 15.9752 3.65097C16.502 3.72363 17.0136 3.86289 17.504 4.06572C17.4071 4.02636 17.3103 3.98398 17.2134 3.94462C17.6917 4.14746 18.1398 4.40781 18.5515 4.72568L18.3063 4.53496C18.7119 4.8498 19.0782 5.21611 19.3931 5.62177L19.2024 5.37656C19.5172 5.78828 19.7806 6.23632 19.9834 6.71464C19.944 6.61777 19.9017 6.52089 19.8623 6.42402C20.0651 6.91445 20.2044 7.42607 20.2771 7.95283C20.2619 7.84687 20.2468 7.73789 20.2347 7.63193C20.268 7.89531 20.2831 8.16171 20.2861 8.42812C20.2892 9.06083 20.8401 9.66933 21.4971 9.63906C22.151 9.60878 22.711 9.10625 22.708 8.42812C22.702 6.97802 22.266 5.49462 21.4123 4.31396C21.1822 3.99609 20.937 3.68427 20.6646 3.40273C20.3891 3.11816 20.0863 2.87294 19.7715 2.63378C19.1993 2.19785 18.5606 1.87695 17.8824 1.62871C15.1487 0.626655 11.852 1.51972 10.0023 3.77207C9.74796 4.08085 9.50577 4.40175 9.29991 4.74687C9.09405 5.08896 8.9336 5.45224 8.78526 5.82158C8.50675 6.50576 8.36446 7.23232 8.30694 7.96796C8.19493 9.40898 8.57032 10.9136 9.3211 12.1487C10.0446 13.3415 11.1375 14.3647 12.415 14.943C12.7904 15.1125 13.1749 15.2699 13.5745 15.3819C13.9711 15.4909 14.3737 15.5515 14.7824 15.5999C15.5272 15.6877 16.287 15.6271 17.0227 15.4788C19.8169 14.9097 22.157 12.5029 22.5899 9.67841C22.6535 9.26669 22.702 8.85498 22.702 8.4372C22.705 7.80449 22.1419 7.19599 21.491 7.22626C20.8371 7.24746 20.2861 7.75 20.2861 8.42812ZM24.3034 27.3581H8.77013C8.08292 27.3581 7.39571 27.3642 6.7085 27.3581C6.63282 27.3581 6.55714 27.352 6.48448 27.343C6.59044 27.3581 6.69942 27.3732 6.80538 27.3853C6.68428 27.3672 6.56925 27.3339 6.45723 27.2885C6.55411 27.3278 6.65098 27.3702 6.74786 27.4096C6.62676 27.3581 6.51475 27.2915 6.4088 27.2098L6.65401 27.4005C6.56319 27.3248 6.47843 27.2431 6.40577 27.1522L6.59649 27.3975C6.51475 27.2915 6.45118 27.1795 6.39669 27.0584C6.43604 27.1553 6.47843 27.2521 6.51778 27.349C6.47237 27.237 6.4421 27.1189 6.42091 27.0009C6.43604 27.1068 6.45118 27.2158 6.46329 27.3218C6.41485 26.9555 6.44815 26.568 6.44815 26.1986V24.9029C6.44815 24.579 6.46632 24.2581 6.5087 23.9372C6.49356 24.0432 6.47843 24.1521 6.46632 24.2581C6.55108 23.6375 6.71456 23.029 6.95977 22.4508C6.92042 22.5477 6.87803 22.6445 6.83868 22.7414C7.07481 22.1904 7.37755 21.6727 7.74385 21.1975L7.55313 21.4427C7.91944 20.9734 8.34024 20.5496 8.81251 20.1833L8.56729 20.374C9.04259 20.0077 9.56026 19.705 10.1112 19.4688C10.0144 19.5082 9.91749 19.5506 9.82061 19.5899C10.3988 19.3477 11.0043 19.1812 11.6279 19.0965C11.522 19.1116 11.413 19.1268 11.307 19.1389C11.7551 19.0813 12.2001 19.0783 12.6512 19.0783H18.1912C18.6907 19.0783 19.1872 19.0753 19.6867 19.1389C19.5808 19.1237 19.4718 19.1086 19.3658 19.0965C19.9864 19.1812 20.5949 19.3447 21.1732 19.5899C21.0763 19.5506 20.9794 19.5082 20.8825 19.4688C21.4335 19.705 21.9512 20.0077 22.4265 20.374L22.1813 20.1833C22.6505 20.5496 23.0743 20.9704 23.4406 21.4427L23.2499 21.1975C23.6162 21.6727 23.919 22.1904 24.1551 22.7414C24.1157 22.6445 24.0733 22.5477 24.034 22.4508C24.2762 23.029 24.4427 23.6345 24.5274 24.2581C24.5123 24.1521 24.4972 24.0432 24.4851 23.9372C24.5426 24.3943 24.5456 24.8484 24.5456 25.3086V26.8071C24.5456 26.9797 24.5517 27.1522 24.5305 27.3218C24.5456 27.2158 24.5607 27.1068 24.5729 27.0009C24.5547 27.122 24.5214 27.237 24.476 27.349C24.5153 27.2521 24.5577 27.1553 24.5971 27.0584C24.5456 27.1795 24.479 27.2915 24.3973 27.3975L24.588 27.1522C24.5123 27.2431 24.4306 27.3278 24.3398 27.4005L24.585 27.2098C24.479 27.2915 24.367 27.3551 24.2459 27.4096C24.3428 27.3702 24.4397 27.3278 24.5365 27.2885C24.4245 27.3339 24.3065 27.3642 24.1884 27.3853C24.2943 27.3702 24.4033 27.3551 24.5093 27.343C24.4427 27.352 24.3731 27.3551 24.3034 27.3581C23.9916 27.3611 23.6707 27.4913 23.4467 27.7123C23.2378 27.9212 23.0773 28.2663 23.0925 28.569C23.1228 29.2169 23.6253 29.7891 24.3034 29.78C25.4811 29.7618 26.5164 28.9929 26.8615 27.8637C26.9978 27.4156 26.9675 26.9343 26.9675 26.4741C26.9675 25.4206 27.0008 24.3762 26.8191 23.3317C26.5527 21.8029 25.7838 20.3649 24.7303 19.2357C23.6768 18.1065 22.26 17.277 20.7614 16.9077C19.9017 16.6958 19.0358 16.6625 18.1579 16.6625H12.7874C11.8883 16.6625 10.9952 16.7049 10.1203 16.938C8.63389 17.3315 7.23526 18.1701 6.20294 19.3084C5.16153 20.4558 4.40772 21.8968 4.16251 23.4347C3.99903 24.467 4.03233 25.5023 4.03233 26.5437C4.03233 27.0221 4.00509 27.5216 4.17764 27.9787C4.40167 28.566 4.75889 29.0292 5.28262 29.3773C5.69132 29.6468 6.20899 29.7769 6.69337 29.783C6.9295 29.786 7.16563 29.783 7.40177 29.783H24.3065C24.9392 29.783 25.5477 29.226 25.5174 28.5721C25.4871 27.9121 24.9846 27.3581 24.3034 27.3581Z" fill="#39A935"/>
</svg>
