<svg width="100" height="100" viewBox="0 0 100 100" fill="none" xmlns="http://www.w3.org/2000/svg">
<path fill-rule="evenodd" clip-rule="evenodd" d="M17.6631 43.2971C17.7231 25.628 32.0954 11.353 49.7645 11.4128C67.4336 11.4731 81.7086 25.8454 81.6488 43.5145V43.8768C81.4312 55.3623 75.0182 65.9783 67.1558 74.2754C62.6594 78.9446 57.6381 83.0784 52.1921 86.5942C50.7358 87.8538 48.5758 87.8538 47.1196 86.5942C39.0009 81.3098 31.8753 74.638 26.0689 66.8841C20.8937 60.1225 17.9554 51.9156 17.6631 43.4058V43.2971Z" stroke="#39A935" stroke-width="7" stroke-linecap="round" stroke-linejoin="round"/>
<path d="M49.6542 54.1667C55.3174 54.1667 59.9084 49.5757 59.9084 43.9125C59.9084 38.2493 55.3174 33.6583 49.6542 33.6583C43.991 33.6583 39.4 38.2493 39.4 43.9125C39.4 49.5757 43.991 54.1667 49.6542 54.1667Z" stroke="#39A935" stroke-width="7" stroke-linecap="round" stroke-linejoin="round"/>
</svg>
